<svg xmlns="http://www.w3.org/2000/svg" width="36" height="36" viewBox="0 0 36 36">
  <path id="circletwitter" d="M18,36a17.657,17.657,0,0,1-7-1.424A17.613,17.613,0,0,1,1.424,25,17.9,17.9,0,0,1,1.424,11,17.613,17.613,0,0,1,11,1.424,17.9,17.9,0,0,1,25,1.424,17.613,17.613,0,0,1,34.576,11a17.9,17.9,0,0,1,0,13.992A17.613,17.613,0,0,1,25,34.576,17.657,17.657,0,0,1,18,36ZM28.582,9a6.5,6.5,0,0,0-.633.387l-.686.457-.65.352-.738.246A4.143,4.143,0,0,0,22.676,9q-4.113,0-4.113,3.445V14.52a11.121,11.121,0,0,1-8.684-4.148,2.839,2.839,0,0,0-.879,2,4.006,4.006,0,0,0,1.723,3.516q-.211,0-.6.035a2.665,2.665,0,0,1-.615,0A1.762,1.762,0,0,1,9,15.751a4.157,4.157,0,0,0,.861,2.689,3.97,3.97,0,0,0,2.373,1.388,1.211,1.211,0,0,1-.984.422,1.594,1.594,0,0,1-.984-.316,2.346,2.346,0,0,0,1.318,2.127,6.132,6.132,0,0,0,2.971.791,3.812,3.812,0,0,1-1.846,1.424,7.009,7.009,0,0,1-2.584.474A5.288,5.288,0,0,1,8.771,24.5q-.862-.246-.9-.246a4.594,4.594,0,0,0,2.3,1.934A10.473,10.473,0,0,0,14.59,27a11.6,11.6,0,0,0,4.4-.826,10.932,10.932,0,0,0,3.48-2.2,14.435,14.435,0,0,0,2.479-3.129,14.629,14.629,0,0,0,1.547-3.639A14.213,14.213,0,0,0,27,13.5q0-.07.422-.3a11.344,11.344,0,0,0,.984-.615,3.11,3.11,0,0,0,.844-.809q-1.9,0-2.531.07A4.724,4.724,0,0,0,28.582,9Z" fill="#fff"/>
</svg>
